# xmcd CD database file
#
# Track frame offsets:
#	150
#	15904
#	34805
#	53032
#	74484
#	89186
#	109137
#	122863
#	141314
#	163669
#	182120
#	205597
#
# Disc length: 2775 seconds
#
# Revision: 0
# Processed by: cddbd v1.5.2PL0 Copyright (c) Steve Scherf et al.
# Submitted via: CDex 1.70beta2
#
DISCID=ac0ad50c
DTITLE=Brad Paisley - Brad Paisley Christmas
DYEAR=2006
DGENRE=Country
TTITLE0=Winter Wonderland
TTITLE1=Santa Looked A Lot Like Daddy
TTITLE2=I'll Be Home For Christmas
TTITLE3=Away In A Manger
TTITLE4=Penguin, James Penguin
TTITLE5=364 Days To Go
TTITLE6=Jingle Bells
TTITLE7=Silent Night
TTITLE8=Born On Christmas Day
TTITLE9=Silver Bells
TTITLE10=Kung Pao Buckaroo Holiday (featuring the Kung Pao Buckaroos)
TTITLE11=Little Jimmy Dickens outtake (Hidden Track)
EXTD=YEAR: 2006
EXTT0=
EXTT1=
EXTT2=
EXTT3=
EXTT4=
EXTT5=
EXTT6=
EXTT7=
EXTT8=
EXTT9=
EXTT10=
EXTT11=
PLAYORDER=
